<svg width="18" height="18" viewBox="0 0 18 18" fill="none" xmlns="http://www.w3.org/2000/svg">
<path fill-rule="evenodd" clip-rule="evenodd" d="M8.58335 1.29163C4.55628 1.29163 1.29169 4.55622 1.29169 8.58329C1.29169 12.6104 4.55628 15.875 8.58335 15.875C12.6104 15.875 15.875 12.6104 15.875 8.58329C15.875 4.55622 12.6104 1.29163 8.58335 1.29163ZM0.041687 8.58329C0.041687 3.86586 3.86592 0.041626 8.58335 0.041626C13.3008 0.041626 17.125 3.86586 17.125 8.58329C17.125 10.7171 16.3426 12.6681 15.0491 14.1651L17.7753 16.8914C18.0194 17.1354 18.0194 17.5312 17.7753 17.7752C17.5312 18.0193 17.1355 18.0193 16.8914 17.7752L14.1652 15.049C12.6681 16.3426 10.7171 17.125 8.58335 17.125C3.86592 17.125 0.041687 13.3007 0.041687 8.58329Z" fill="#6D7379"/>
</svg>
