<svg width="252" height="211" viewBox="0 0 252 211" fill="none" xmlns="http://www.w3.org/2000/svg">
<g clip-path="url(#clip0_407_1008)">
<path d="M204.631 101.836C204.631 104.801 204.507 107.736 204.257 110.641C204.061 112.908 203.793 115.156 203.454 117.382C203.093 119.74 202.651 122.069 202.128 124.37V124.373C201.786 125.887 201.41 127.389 201.001 128.879C199.813 133.209 198.336 137.455 196.58 141.587C196.198 142.486 195.804 143.379 195.397 144.266C193.858 147.624 192.136 150.894 190.236 154.062C184.91 162.959 178.262 170.993 170.519 177.89C169.681 178.635 168.831 179.368 167.97 180.089C149.689 195.36 126.616 203.709 102.795 203.673C46.5516 203.673 0.958618 158.08 0.958618 101.836C0.958618 45.5931 46.5516 8.03556e-05 102.795 8.03556e-05C125.795 -0.0361859 148.125 7.74916 166.117 22.0779C166.96 22.7462 167.793 23.4295 168.615 24.1279C172.627 27.5303 176.371 31.2363 179.814 35.2132H179.817C195.854 53.7003 204.668 77.3623 204.631 101.836Z" fill="#F2F2F2"/>
<path d="M31.0205 119.427C21.3194 113.653 13.9974 102.863 14.948 91.6137C23.8172 100.102 35.4031 105.18 47.6558 105.949C52.3822 106.228 57.6682 106.047 61.1474 109.258C63.3123 111.256 64.32 114.265 64.4853 117.206C64.6506 120.147 64.0613 123.073 63.4751 125.96L63.6769 126.668C52.3876 126.71 40.7216 125.201 31.0205 119.427Z" fill="#E6E6E6"/>
<path d="M15.1846 91.6017C19.0716 100.099 25.5372 107.156 33.6632 111.77C35.4101 112.747 37.2673 113.587 39.2409 113.977C41.1675 114.342 43.1567 114.184 45.0019 113.521C46.7347 112.936 48.4396 112.138 50.2843 111.985C52.2287 111.823 54.0288 112.574 55.4432 113.888C57.1736 115.495 58.2232 117.629 59.1772 119.751C60.2363 122.107 61.2991 124.571 63.3298 126.265C63.5759 126.471 63.2429 126.841 62.9973 126.636C59.4642 123.688 58.8875 118.751 56.0633 115.279C54.7455 113.659 52.9315 112.426 50.7765 112.458C48.892 112.487 47.1333 113.309 45.3838 113.916C43.5469 114.553 41.7067 114.852 39.7674 114.572C37.7836 114.285 35.8897 113.516 34.1255 112.587C30.1405 110.451 26.5163 107.701 23.3854 104.439C19.7916 100.736 16.8577 96.4458 14.7106 91.7534C14.5779 91.4629 15.0527 91.3131 15.1846 91.6017Z" fill="white"/>
<path d="M30.9592 110.438C30 111.696 28.6249 112.573 27.0792 112.911C25.5336 113.249 23.9181 113.026 22.5214 112.283C22.2393 112.132 22.4612 111.686 22.7437 111.838C24.043 112.532 25.5479 112.739 26.9865 112.422C28.4252 112.104 29.7029 111.283 30.5891 110.106C30.782 109.85 31.151 110.184 30.9592 110.438Z" fill="white"/>
<path d="M44.1623 113.933C43.7586 110.724 42.1603 107.785 39.686 105.702C39.4407 105.496 39.7736 105.126 40.0186 105.332C42.5893 107.504 44.2464 110.566 44.6592 113.906C44.6983 114.224 44.2012 114.249 44.1623 113.933Z" fill="white"/>
<path d="M20.4086 100.503C20.881 100.093 21.2443 99.5728 21.466 98.9881C21.6876 98.4034 21.7606 97.7728 21.6784 97.1529C21.6352 96.8352 22.1322 96.8107 22.1751 97.1264C22.2627 97.8117 22.1813 98.5081 21.9378 99.1546C21.6944 99.8012 21.2964 100.378 20.7786 100.835C20.7334 100.883 20.6719 100.911 20.6067 100.914C20.5414 100.918 20.4773 100.896 20.4274 100.854C20.3786 100.81 20.3493 100.748 20.3458 100.682C20.3422 100.617 20.3648 100.552 20.4086 100.503Z" fill="white"/>
<path d="M46.3498 69.8203C46.3824 70.0179 46.4149 70.2155 46.4513 70.415C46.903 73.0699 47.5697 75.6837 48.4447 78.2306C48.5093 78.4286 48.5776 78.6283 48.6477 78.824C50.8213 84.9376 54.111 90.5945 58.3497 95.5072C60.0381 97.4605 61.8727 99.2825 63.8376 100.957C66.5513 103.271 69.6777 105.563 71.4176 108.549C71.6027 108.859 71.7683 109.179 71.9137 109.509L64.524 126.367C64.488 126.396 64.4558 126.428 64.4197 126.458L64.1554 127.145C64.048 127.065 63.9383 126.981 63.831 126.902C63.7685 126.856 63.7077 126.806 63.6452 126.761C63.6041 126.729 63.563 126.697 63.5241 126.671C63.5103 126.66 63.4967 126.65 63.4868 126.641C63.4479 126.615 63.4145 126.586 63.3794 126.561C62.7652 126.09 62.1532 125.614 61.5434 125.133C61.5395 125.131 61.5395 125.131 61.5373 125.126C56.9005 121.447 52.5301 117.349 48.9207 112.718C48.8121 112.578 48.6996 112.437 48.5945 112.29C46.9791 110.194 45.5378 107.968 44.2849 105.637C43.603 104.358 42.9862 103.046 42.437 101.705C41.0246 98.2364 40.1665 94.5676 39.8942 90.8328C39.3524 83.3874 41.1978 75.8517 45.9802 70.245C46.1026 70.1017 46.2235 69.9619 46.3498 69.8203Z" fill="#E6E6E6"/>
<path d="M46.5471 69.952C44.5345 79.077 45.4483 88.6042 49.1587 97.1803C49.9648 99.0128 50.942 100.802 52.2832 102.301C53.6018 103.752 55.285 104.824 57.1579 105.405C58.8933 105.982 60.7352 106.371 62.3003 107.359C63.9499 108.401 64.9355 110.084 65.2737 111.984C65.6875 114.31 65.241 116.645 64.725 118.914C64.1521 121.433 63.5172 124.04 64.1184 126.616C64.1913 126.928 63.7028 127.023 63.6301 126.711C62.584 122.23 65.0959 117.941 64.9313 113.469C64.8544 111.382 64.1482 109.305 62.408 108.034C60.8863 106.922 58.9872 106.519 57.225 105.95C55.3747 105.353 53.7252 104.484 52.3455 103.093C50.9343 101.67 49.8851 99.9152 49.0357 98.1113C47.1401 94.0065 45.9016 89.6292 45.3658 85.1397C44.7258 80.0192 44.9665 74.827 46.0774 69.7877C46.1462 69.4759 46.6156 69.6421 46.5471 69.952Z" fill="white"/>
<path d="M47.8015 94.4892C46.2781 94.9164 44.6524 94.7881 43.2148 94.1274C41.7773 93.4666 40.6214 92.3164 39.9536 90.882C39.8195 90.5914 40.2649 90.3693 40.3992 90.6604C41.0186 91.9971 42.0954 93.0685 43.4353 93.6811C44.7752 94.2936 46.29 94.407 47.7062 94.0008C48.014 93.9129 48.1076 94.4018 47.8015 94.4892Z" fill="white"/>
<path d="M56.2395 105.228C57.8486 102.423 58.3417 99.1144 57.6204 95.9617C57.5487 95.6494 58.0369 95.5545 58.1086 95.8664C58.8531 99.1486 58.333 102.591 56.652 105.506C56.4916 105.784 56.0799 105.505 56.2395 105.228Z" fill="white"/>
<path d="M45.3591 80.2042C45.983 80.1618 46.5865 79.965 47.1156 79.6317C47.6446 79.2983 48.0826 78.8387 48.3901 78.2943C48.547 78.0146 48.9586 78.2944 48.8028 78.5722C48.4602 79.1722 47.9759 79.6791 47.3922 80.0488C46.8085 80.4184 46.1432 80.6394 45.4543 80.6926C45.3898 80.7031 45.3238 80.6886 45.2696 80.6521C45.2154 80.6156 45.1771 80.5598 45.1625 80.4961C45.1502 80.4313 45.164 80.3644 45.2008 80.3097C45.2376 80.2551 45.2945 80.2172 45.3591 80.2042Z" fill="white"/>
<path d="M71.5015 23.6027L83.9659 169.513L59.0372 171.387V25.4591C62.0077 23.4935 66.2717 23.186 71.5015 23.6027Z" fill="#CCCCCC"/>
<path d="M133.028 23.6027L120.563 169.513L145.492 171.387V25.4591C142.521 23.4935 138.257 23.186 133.028 23.6027Z" fill="#CCCCCC"/>
<path d="M141.759 177.418H62.5046C61.2337 177.417 60.0153 176.911 59.1167 176.012C58.2181 175.114 57.7126 173.895 57.7112 172.624V27.6005C57.7126 26.3297 58.2181 25.1113 59.1167 24.2127C60.0154 23.314 61.2337 22.8086 62.5046 22.8071H141.759C143.03 22.8086 144.249 23.314 145.147 24.2127C146.046 25.1113 146.551 26.3297 146.553 27.6005V172.624C146.551 173.895 146.046 175.114 145.147 176.012C144.249 176.911 143.03 177.417 141.759 177.418ZM62.5046 24.3983C61.6556 24.3992 60.8416 24.7369 60.2413 25.3372C59.641 25.9376 59.3033 26.7515 59.3024 27.6005V172.624C59.3033 173.473 59.641 174.287 60.2413 174.888C60.8416 175.488 61.6556 175.826 62.5046 175.827H141.759C142.608 175.826 143.422 175.488 144.023 174.888C144.623 174.287 144.961 173.473 144.962 172.624V27.6005C144.961 26.7515 144.623 25.9376 144.023 25.3372C143.422 24.7369 142.608 24.3992 141.759 24.3983L62.5046 24.3983Z" fill="#CCCCCC"/>
<path d="M145.757 46.9402H58.5068V48.5314H145.757V46.9402Z" fill="#CCCCCC"/>
<path d="M145.757 73.4601H58.5068V75.0513H145.757V73.4601Z" fill="#CCCCCC"/>
<path d="M86.8199 23.6027H85.2292V96.002H86.8199V23.6027Z" fill="#CCCCCC"/>
<path d="M119.034 23.6027H117.444V96.002H119.034V23.6027Z" fill="#CCCCCC"/>
<path d="M155.702 181.794H51.2138C49.3147 181.794 47.4935 181.039 46.1506 179.697C44.8078 178.354 44.0534 176.532 44.0534 174.633C44.0534 172.734 44.8078 170.913 46.1506 169.57C47.4935 168.227 49.3147 167.473 51.2138 167.473H155.702C157.601 167.473 159.422 168.227 160.765 169.57C162.108 170.913 162.862 172.734 162.862 174.633C162.862 176.532 162.108 178.354 160.765 179.697C159.422 181.039 157.601 181.794 155.702 181.794Z" fill="#CCCCCC"/>
<path d="M145.757 92.2892H59.0372V97.5932H145.757V92.2892Z" fill="#CCCCCC"/>
<path d="M87.0674 109.169L86.9573 109.116C81.0456 106.26 73.3041 106.263 61.8553 109.126L61.7331 109.156L61.6964 109.035C60.4853 105.064 59.1134 100.567 61.6908 98.3536C61.7269 91.8601 67.4228 86.5874 74.4191 86.5874C81.414 86.5874 87.1092 91.8574 87.1474 98.3492C90.9815 101.281 89.1542 105.613 87.1293 109.064L87.0674 109.169Z" fill="#2F2E41"/>
<path d="M123.403 95.2648C123.297 95.7909 123.077 96.2875 122.758 96.7194C122.439 97.1514 122.03 97.5082 121.558 97.7647C121.087 98.0213 120.565 98.1714 120.029 98.2044C119.493 98.2374 118.957 98.1525 118.458 97.9557L97.5658 118.95L95.7018 112.431L116.451 92.9351C116.837 92.1181 117.51 91.4711 118.341 91.1167C119.172 90.7624 120.105 90.7252 120.962 91.0124C121.818 91.2996 122.54 91.891 122.99 92.6748C123.44 93.4585 123.587 94.38 123.403 95.2648Z" fill="#FFB6B6"/>
<path d="M71.7688 115.476C71.7688 115.476 69.8733 119.771 74.5503 122.42C79.2273 125.069 95.5733 121.41 98.2257 120.899C100.878 120.388 110.784 105.563 110.784 105.563L109.383 98.2924L96.2455 109.697L71.7688 115.476Z" fill="#145DB8"/>
<path d="M68.3191 139.229L68.5843 144.268C68.5843 144.268 67.8016 148.732 68.4453 149.695C69.0842 150.653 86.5187 150.774 86.5187 150.774C86.5187 150.774 87.6707 144.564 88.663 139.129L68.3191 139.229Z" fill="#FFB6B6"/>
<path d="M118.445 205.853L122.09 205.117L121.047 190.394L115.668 191.481L118.445 205.853Z" fill="#FFB6B6"/>
<path d="M123.666 186.694L127.055 185.171L122.659 171.084L117.658 173.333L123.666 186.694Z" fill="#FFB6B6"/>
<path d="M126.618 178.757L120.238 182.37L104.503 157.085C93.4571 164.527 82.6556 168.091 71.7667 169.992C68.0852 170.648 64.3318 170.316 63.625 166.569C63.5919 166.394 63.5656 166.217 63.5459 166.04C63.1112 161.947 68.2024 156.701 68.8496 151.694L82.7832 150.857L84.5014 153.06L100.615 143.153C103.856 141.161 108.118 142.239 110.135 145.56C110.242 145.736 110.34 145.915 110.432 146.1L126.618 178.757Z" fill="#2F2E41"/>
<path d="M122.713 195.766L115.412 196.445L102.176 169.373C89.0494 171.631 76.6661 172.354 65.955 169.623C62.3285 168.711 60.1118 164.966 61.0037 161.259C61.0454 161.086 61.0936 160.914 61.1484 160.745C62.4303 156.834 65.7859 154.066 68.4296 149.764L87.7406 150.058L85.5837 157.5L104.343 155.072C108.115 154.584 111.561 157.315 112.038 161.171C112.064 161.375 112.08 161.58 112.088 161.785L122.713 195.766Z" fill="#2F2E41"/>
<path d="M75.8593 105.32C80.19 105.32 83.7007 101.81 83.7007 97.4791C83.7007 93.1484 80.19 89.6377 75.8593 89.6377C71.5287 89.6377 68.018 93.1484 68.018 97.4791C68.018 101.81 71.5287 105.32 75.8593 105.32Z" fill="#FFB6B6"/>
<path d="M71.2624 108.151L78.4521 108.997C78.7553 109.033 79.0399 109.162 79.266 109.367C79.4922 109.572 79.6488 109.843 79.714 110.141L80.8574 115.373L87.9851 123.767C87.9851 123.767 90.5445 128.566 89.5847 134.005C88.625 139.443 88.2031 143.485 88.2031 143.485C88.2031 143.485 69.0833 150.654 68.4435 149.694C67.8036 148.734 67.596 144.374 67.596 144.374L65.0365 115.9C65.0365 115.9 67.9159 111.101 69.5156 111.101C70.548 111.066 70.4156 108.743 71.2624 108.151Z" fill="#145DB8"/>
<path d="M88.3975 145.236C89.4058 145.236 90.2231 144.255 90.2231 143.045C90.2231 141.835 89.4058 140.854 88.3975 140.854C87.3893 140.854 86.572 141.835 86.572 143.045C86.572 144.255 87.3893 145.236 88.3975 145.236Z" fill="#145DB8"/>
<path d="M116.637 202.062L122.194 199.277L123.241 201.721L130.268 203.141C130.615 203.211 130.93 203.391 131.168 203.653C131.406 203.915 131.554 204.246 131.591 204.598C131.627 204.951 131.55 205.305 131.37 205.61C131.191 205.916 130.918 206.156 130.593 206.295L123.804 209.205L121.597 207.29L122.176 209.903L119.617 211L116.637 202.062Z" fill="#2F2E41"/>
<path d="M122.076 185.522L127.583 182.64L128.673 185.064L135.724 186.361C136.072 186.425 136.391 186.599 136.633 186.857C136.876 187.115 137.03 187.443 137.072 187.795C137.115 188.146 137.044 188.502 136.87 188.811C136.696 189.119 136.428 189.364 136.105 189.509L129.368 192.538L127.128 190.662L127.753 193.264L125.213 194.406L122.076 185.522Z" fill="#2F2E41"/>
<path d="M71.3793 95.0195C69.3077 95.0228 67.2858 94.385 65.5911 93.1934L65.5345 93.1538V93.0847C65.5368 91.0809 66.3339 89.1598 67.7508 87.7428C69.1677 86.3259 71.0889 85.5289 73.0927 85.5266H76.2751C78.279 85.5289 80.2001 86.3259 81.617 87.7428C83.034 89.1598 83.831 91.0809 83.8333 93.0847C83.8312 93.5434 83.6501 93.9831 83.3286 94.3102C83.0071 94.6373 82.5706 94.8259 82.1121 94.836L71.5581 95.0179C71.4985 95.019 71.4387 95.0195 71.3793 95.0195Z" fill="#2F2E41"/>
<path d="M84.3637 91.6332C85.3784 91.0473 85.548 89.4413 84.7424 88.046C83.9369 86.6507 82.4612 85.9946 81.4465 86.5804C80.4317 87.1663 80.2622 88.7723 81.0677 90.1676C81.8733 91.5629 83.3489 92.219 84.3637 91.6332Z" fill="#2F2E41"/>
<path d="M68.4925 90.0764C69.6315 88.9374 69.8834 87.3425 69.055 86.5141C68.2266 85.6857 66.6316 85.9375 65.4926 87.0766C64.3536 88.2156 64.1017 89.8105 64.9301 90.6389C65.7585 91.4673 67.3534 91.2155 68.4925 90.0764Z" fill="#2F2E41"/>
<path d="M137.891 161.771H130.064C129.888 161.771 129.713 161.809 129.553 161.883C129.393 161.957 129.251 162.065 129.136 162.2C128.848 162.147 128.551 162.163 128.269 162.247C127.988 162.331 127.731 162.481 127.519 162.684C127.306 162.887 127.145 163.137 127.049 163.414C126.952 163.691 126.922 163.987 126.962 164.278C127.002 164.569 127.11 164.846 127.278 165.087C127.446 165.328 127.668 165.525 127.927 165.663C128.186 165.802 128.474 165.876 128.768 165.882C129.061 165.887 129.352 165.822 129.615 165.694L130.264 167.803C130.341 168.053 130.496 168.272 130.707 168.427C130.917 168.583 131.172 168.666 131.433 168.666H136.522C136.784 168.666 137.038 168.583 137.249 168.427C137.459 168.272 137.614 168.053 137.691 167.803L139.06 163.354C139.116 163.171 139.129 162.977 139.097 162.789C139.064 162.6 138.988 162.422 138.875 162.268C138.761 162.114 138.613 161.989 138.442 161.902C138.271 161.816 138.082 161.771 137.891 161.771ZM128.806 165.351C128.455 165.351 128.117 165.212 127.869 164.963C127.62 164.714 127.48 164.377 127.48 164.025C127.48 163.674 127.62 163.337 127.869 163.088C128.117 162.839 128.455 162.7 128.806 162.7C128.83 162.7 128.853 162.705 128.877 162.707C128.824 162.92 128.831 163.144 128.895 163.354L129.456 165.174C129.258 165.289 129.034 165.35 128.806 165.351Z" fill="#3F3D56"/>
<path d="M102.941 156.014C102.407 156.064 101.868 155.996 101.363 155.814C100.858 155.633 100.399 155.343 100.017 154.965C99.6364 154.587 99.3429 154.13 99.1576 153.626C98.9723 153.122 98.8996 152.584 98.9448 152.049L72.839 138.06L78.5489 134.404L103.179 148.687C104.072 148.822 104.885 149.281 105.463 149.976C106.041 150.67 106.344 151.553 106.315 152.456C106.286 153.359 105.926 154.22 105.304 154.876C104.683 155.532 103.842 155.937 102.941 156.014Z" fill="#FFB6B6"/>
<path d="M68.7653 112.351C68.7653 112.351 64.1067 111.767 62.9111 117.008C61.7154 122.248 69.9112 136.857 71.1617 139.251C72.4122 141.645 89.4559 146.881 89.4559 146.881L96.0188 143.453L81.324 134.14L68.7653 112.351Z" fill="#145DB8"/>
<path d="M101.602 90.698H103.193C103.966 90.698 104.708 91.0053 105.256 91.5524C105.803 92.0995 106.11 92.8415 106.11 93.6152H98.6844C98.6844 92.8415 98.9917 92.0995 99.5388 91.5524C100.086 91.0053 100.828 90.698 101.602 90.698Z" fill="#CCCCCC"/>
<path d="M51.1453 36.2701C59.8514 36.2701 66.9092 29.2123 66.9092 20.5062C66.9092 11.8 59.8514 4.74224 51.1453 4.74224C42.4391 4.74224 35.3813 11.8 35.3813 20.5062C35.3813 29.2123 42.4391 36.2701 51.1453 36.2701Z" fill="#FF6584"/>
<path d="M99.4106 19.6846C95.2387 15.3082 90.3935 11.3157 84.6577 9.20599C83.06 8.61581 81.4033 8.19949 79.7164 7.96425C79.7028 7.96239 79.69 7.96513 79.6765 7.96404C79.649 7.95697 79.6212 7.95151 79.5931 7.94768C77.2338 7.64711 74.839 7.79169 72.5329 8.37392C71.4052 8.65691 70.3051 9.04016 69.2456 9.51909C68.1825 10.0378 67.1523 10.6216 66.161 11.2672C64.0629 12.5231 61.7528 13.3849 59.3447 13.8101C58.136 14.0277 56.9118 14.1479 55.6838 14.1694C54.6183 14.1908 53.6135 14.2278 52.604 14.6127C51.5256 15.0182 50.5569 15.6702 49.7753 16.5165C48.9936 17.3629 48.4206 18.3802 48.102 19.4873C48.0774 19.5859 48.0848 19.6898 48.1231 19.7839C48.1614 19.878 48.2286 19.9575 48.3151 20.0109C48.5881 20.2065 48.8543 20.4284 49.1413 20.6027C49.3965 20.7195 49.6691 20.7938 49.9483 20.8228C50.4045 20.919 50.8612 21.0125 51.3185 21.1031C53.0033 21.4369 54.695 21.7324 56.3937 21.9896C59.8311 22.5099 63.287 22.8765 66.7615 23.0892C73.7219 23.5108 80.7062 23.3009 87.6287 22.462C91.5192 21.9908 95.3833 21.3225 99.206 20.4596C99.2834 20.437 99.3537 20.3947 99.4099 20.337C99.4662 20.2792 99.5066 20.2079 99.5272 20.1299C99.5478 20.0519 99.5479 19.97 99.5274 19.892C99.507 19.8139 99.4668 19.7425 99.4106 19.6846Z" fill="#E6E6E6"/>
<path d="M51.8935 30.2245C50.2957 29.6344 48.6391 29.2181 46.9521 28.9828C46.9386 28.9809 46.9257 28.9837 46.9122 28.9826C46.8848 28.9755 46.857 28.9701 46.8289 28.9662C44.4695 28.6657 42.0748 28.8102 39.7687 29.3925C38.641 29.6755 37.5409 30.0587 36.4814 30.5376C35.4182 31.0563 34.3881 31.6401 33.3968 32.2858C31.2987 33.5417 28.9886 34.4035 26.5805 34.8286C25.3718 35.0463 24.1475 35.1664 22.9196 35.188C21.8541 35.2093 20.8492 35.2463 19.8397 35.6313C18.7614 36.0368 17.7927 36.6887 17.0111 37.5351C16.2294 38.3814 15.6564 39.3987 15.3378 40.5059C15.3132 40.6045 15.3206 40.7083 15.3589 40.8024C15.3972 40.8965 15.4644 40.976 15.5508 41.0295C15.8239 41.2251 16.0901 41.447 16.377 41.6212C16.6323 41.738 16.9049 41.8124 17.1841 41.8413C17.6402 41.9376 18.097 42.031 18.5543 42.1216C20.239 42.4554 21.9308 42.7509 23.6295 43.0081C27.0669 43.5284 30.5228 43.895 33.9973 44.1077C40.9577 44.5293 47.942 44.3194 54.8645 43.4806C58.755 43.0093 62.6191 42.341 66.4418 41.4781C66.5192 41.4555 66.5895 41.4132 66.6457 41.3555C66.702 41.2977 66.7424 41.2264 66.763 41.1484C66.7835 41.0705 66.7836 40.9885 66.7632 40.9105C66.7428 40.8325 66.7026 40.7611 66.6464 40.7032C62.4745 36.3268 57.6293 32.3343 51.8935 30.2245Z" fill="#E6E6E6"/>
<path d="M165.574 147.742L153.451 131.817L143.886 137.225L164.155 161.295L165.574 147.742Z" fill="#3F3D56"/>
<path d="M193.498 121.854C193.768 128.528 194.802 135.149 196.58 141.587C196.198 142.486 195.804 143.379 195.397 144.265C193.858 147.623 192.136 150.894 190.236 154.062C184.91 162.959 178.262 170.993 170.519 177.89C169.681 178.635 168.831 179.368 167.97 180.089C163.061 173.321 160.412 165.853 159.365 158.167C159.232 157.191 159.123 156.205 159.041 155.224V155.218C158.84 152.834 158.775 150.439 158.847 148.047C158.85 147.856 158.855 147.663 158.863 147.469C158.956 144.913 159.187 142.351 159.534 139.813V139.81C159.574 139.518 159.614 139.227 159.659 138.935C159.786 138.06 159.929 137.185 160.086 136.315C160.997 131.298 162.267 126.353 163.889 121.519V121.517C163.934 121.376 163.979 121.238 164.029 121.1C164.204 120.575 164.382 120.056 164.565 119.536C164.576 119.495 164.591 119.455 164.608 119.416C164.844 118.737 165.085 118.064 165.332 117.396C165.398 117.21 165.467 117.024 165.538 116.839C165.817 116.093 166.101 115.354 166.39 114.624C166.48 114.391 166.573 114.157 166.665 113.927C166.737 113.749 166.806 113.571 166.88 113.396V113.394C167.302 112.351 167.729 111.33 168.161 110.328C169.373 107.512 170.62 104.862 171.834 102.42L171.837 102.417C176.878 92.3051 181.461 85.7388 181.461 85.7388L198.67 91.3079C196.617 94.9491 195.029 100.319 194.159 106.655C193.488 111.691 193.267 116.776 193.498 121.851L193.498 121.854Z" fill="#3F3D56"/>
<path d="M164.897 120.233C164.796 119.997 164.682 119.766 164.565 119.536C163.96 118.364 163.181 117.291 162.255 116.353C162.117 116.213 161.974 116.072 161.826 115.94C160.228 114.468 158.286 113.423 156.177 112.901C154.069 112.379 151.864 112.397 149.764 112.953L149.754 112.959L149.674 112.98L149.693 113.07C149.772 113.49 149.888 113.903 150.037 114.303C150.077 114.412 150.122 114.516 150.167 114.619C150.186 114.667 150.21 114.709 150.231 114.757C150.231 114.757 150.228 114.759 150.234 114.759C150.234 114.762 150.236 114.765 150.236 114.767C150.287 114.866 150.334 114.966 150.388 115.062C150.279 114.958 150.175 114.852 150.075 114.744C149.976 114.643 149.886 114.537 149.796 114.431C149.487 114.07 149.208 113.685 148.961 113.28L148.918 113.208L148.844 113.237C147.843 113.584 146.889 114.052 146.001 114.63L145.906 114.693C145.228 115.138 144.464 115.435 143.664 115.566C142.864 115.697 142.046 115.658 141.262 115.452C140.026 115.133 138.738 115.075 137.478 115.281C136.218 115.487 135.015 115.952 133.945 116.648C133.236 117.11 132.595 117.669 132.041 118.308C131.993 118.364 131.946 118.422 131.898 118.478C131.797 118.6 131.702 118.724 131.609 118.852C130.612 120.184 130 121.765 129.84 123.421L129.835 123.482L129.885 123.516C130.782 124.131 131.797 124.554 132.866 124.758C132.195 124.851 131.515 124.868 130.84 124.808H130.837C130.531 124.783 130.226 124.74 129.925 124.681L129.869 124.67H129.866L129.797 124.657L129.808 124.784C129.887 126.404 130.397 127.974 131.285 129.332L131.312 129.369C131.322 129.383 131.33 129.397 131.338 129.412C131.715 129.987 132.028 130.602 132.272 131.244C132.892 132.841 133.028 134.585 132.664 136.259C132.252 138.05 132.389 139.923 133.057 141.634C133.725 143.345 134.893 144.816 136.409 145.854C137.74 146.77 139.292 147.315 140.904 147.432C141.124 147.451 141.347 147.461 141.57 147.461C142.845 147.465 144.107 147.202 145.274 146.689L145.317 146.674L145.328 146.626C145.552 145.901 145.867 145.208 146.266 144.563C146.136 145.071 146.07 145.594 146.07 146.119V146.294L146.221 146.207C146.351 146.13 146.484 146.048 146.603 145.971C147.32 145.503 147.968 144.939 148.531 144.295C148.751 144.04 148.974 143.793 149.207 143.547L149.21 143.544C149.664 143.062 150.144 142.589 150.642 142.139C151.703 141.186 152.838 140.32 154.037 139.548C155.235 138.778 156.487 138.098 157.784 137.511H157.787C157.932 137.442 158.081 137.376 158.227 137.312C158.873 137.031 159.494 136.697 160.086 136.315C160.107 136.302 160.126 136.291 160.144 136.278C162.708 134.599 164.593 132.065 165.463 129.127C166.333 126.189 166.132 123.037 164.897 120.233Z" fill="#145DB8"/>
<path opacity="0.15" d="M133.101 140.025C133.029 140.347 132.974 140.673 132.937 141.001C132.443 139.441 132.372 137.778 132.73 136.181C132.785 135.937 132.826 135.69 132.858 135.441C133.348 136.92 133.432 138.503 133.101 140.025Z" fill="black"/>
<path opacity="0.15" d="M133.301 128.521C132.516 128.63 131.719 128.634 130.933 128.532C130.727 128.144 130.549 127.741 130.401 127.327C131.276 127.918 132.263 128.324 133.301 128.521Z" fill="black"/>
<path opacity="0.15" d="M130.87 124.723C130.58 125.464 130.387 126.24 130.297 127.031C130.055 126.278 129.912 125.496 129.872 124.706L129.866 124.578L129.991 124.603C130.282 124.657 130.575 124.697 130.87 124.723Z" fill="black"/>
<path opacity="0.15" d="M134.014 116.569C135.083 115.872 136.285 115.406 137.544 115.2C138.803 114.994 140.091 115.052 141.326 115.371C142.111 115.579 142.93 115.618 143.73 115.488C144.531 115.357 145.295 115.06 145.973 114.614L146.068 114.551C146.955 113.972 147.909 113.503 148.91 113.155L148.986 113.129L149.028 113.198C149.423 113.852 149.903 114.452 150.454 114.982C150.119 114.358 149.885 113.686 149.759 112.99L149.741 112.898L149.832 112.874C151.801 112.353 153.865 112.305 155.856 112.733C157.847 113.162 159.709 114.055 161.289 115.34C162.87 116.625 164.124 118.266 164.949 120.128C165.775 121.99 166.148 124.021 166.04 126.054C165.622 124.396 164.879 122.838 163.855 121.468C162.83 120.099 161.544 118.947 160.071 118.079C158.598 117.21 156.968 116.643 155.274 116.409C153.58 116.175 151.856 116.28 150.203 116.718L150.113 116.741L150.131 116.833C150.256 117.53 150.491 118.202 150.825 118.825C150.274 118.295 149.795 117.696 149.399 117.042L149.358 116.972L149.281 116.999C148.281 117.346 147.327 117.815 146.44 118.394L146.344 118.458C145.666 118.903 144.902 119.201 144.102 119.331C143.301 119.462 142.482 119.422 141.698 119.215C139.645 118.682 137.471 118.878 135.546 119.769C133.621 120.66 132.065 122.191 131.143 124.102C130.733 123.904 130.335 123.682 129.952 123.436L129.9 123.403L129.906 123.342C130.038 121.977 130.475 120.659 131.187 119.486C131.898 118.314 132.864 117.317 134.014 116.569Z" fill="black"/>
<path d="M232.605 48.8072L232.353 48.6401L232.17 48.8788C230.753 50.6618 229.627 52.6567 228.831 54.7901C228.941 52.3324 229.37 49.8994 230.109 47.5528L230.189 47.3062L229.961 47.1762C226.993 45.496 223.832 44.185 220.546 43.2725L220.188 43.177C217.67 42.4861 215.326 41.2721 213.308 39.6143C211.291 37.9565 209.645 35.892 208.479 33.5556C205.77 28.1934 201.49 23.7851 196.21 20.9188C190.93 18.0526 184.901 16.8647 178.928 17.5137H178.926C178.862 17.519 178.796 17.527 178.732 17.5349C178.623 17.5456 178.517 17.5588 178.411 17.5721C178.194 17.6012 177.982 17.6304 177.769 17.6622C177.589 17.6888 177.406 17.7179 177.226 17.7498C177.13 17.763 177.037 17.7789 176.945 17.7975C176.852 17.8134 176.756 17.8293 176.663 17.8479H176.661C174.88 18.1847 173.135 18.6863 171.447 19.3463H171.444V19.3489L171.017 19.516C170.577 19.6963 170.14 19.8872 169.707 20.0888C169.609 20.1339 169.514 20.1816 169.416 20.2267C169.389 20.24 169.36 20.2532 169.333 20.2691C169.055 20.4017 168.779 20.5396 168.506 20.6855C168.466 20.7041 168.426 20.7253 168.387 20.7465L168.132 20.8817C167.572 21.1841 167.023 21.505 166.483 21.8444C166.437 21.8709 166.395 21.8975 166.35 21.9266C166.302 21.9584 166.252 21.9903 166.204 22.0221C166.175 22.038 166.146 22.0592 166.117 22.0778C166.034 22.1282 165.955 22.1812 165.875 22.2369C165.716 22.3403 165.557 22.4464 165.401 22.5551C165.239 22.6639 165.08 22.7779 164.921 22.8919L164.761 23.006L164.791 23.2022C164.817 23.364 164.841 23.5258 164.87 23.6849C164.897 23.844 164.923 24.0005 164.952 24.1569C164.997 24.4195 165.048 24.6794 165.098 24.9313C165.133 25.0984 165.165 25.2628 165.202 25.4246C165.236 25.5917 165.273 25.7587 165.313 25.9258C165.39 26.2706 165.472 26.6047 165.56 26.9336C165.602 27.098 165.647 27.2624 165.695 27.4242C165.721 27.5223 165.748 27.6204 165.777 27.7159C165.798 27.7822 165.82 27.8485 165.841 27.9148C165.846 27.936 165.851 27.9599 165.859 27.9838C165.865 28.0062 165.872 28.0284 165.881 28.0501C165.91 28.1482 165.939 28.2437 165.968 28.3365C165.984 28.3869 166 28.4373 166.018 28.485C166.056 28.599 166.095 28.7157 166.135 28.8271C166.178 28.9544 166.223 29.0817 166.268 29.2063C166.278 29.2382 166.289 29.2673 166.3 29.2992C166.307 29.323 166.315 29.3469 166.326 29.3708C166.337 29.3973 166.347 29.4264 166.358 29.453C166.403 29.5723 166.448 29.6943 166.496 29.8136C166.512 29.8561 166.528 29.9012 166.546 29.9436C166.976 31.024 167.504 32.0626 168.124 33.0464C167.437 32.4577 166.776 31.8336 166.14 31.1741C165.159 30.1545 164.255 29.0632 163.435 27.9095C163.369 27.8193 163.303 27.7265 163.242 27.6337C163.117 27.456 162.995 27.2783 162.876 27.098C162.749 26.9124 162.627 26.7188 162.507 26.5278C162.428 26.4005 162.348 26.2706 162.271 26.1433C162.194 26.0213 162.123 25.902 162.054 25.78L161.847 25.4246H161.844V25.4272L161.553 25.7137C161.436 25.8277 161.319 25.9417 161.205 26.0558C157.641 29.6421 155.059 34.0851 153.708 38.9577L153.668 39.1035L153.628 39.2547C153.551 39.5252 153.475 39.7878 153.392 40.0556V40.0583C153.313 40.3235 153.228 40.5887 153.138 40.8485C153.056 41.0952 152.971 41.3392 152.88 41.5831C152.851 41.6654 152.82 41.7476 152.785 41.8298C152.729 41.9889 152.668 42.1454 152.607 42.3045C152.578 42.3761 152.549 42.4503 152.52 42.522C152.448 42.697 152.377 42.872 152.305 43.0444C152.294 43.0709 152.281 43.1001 152.268 43.1266C152.247 43.1796 152.223 43.2327 152.202 43.2831C152.146 43.4104 152.088 43.5403 152.032 43.6676C151.992 43.7498 151.955 43.8347 151.918 43.9169C151.902 43.954 151.883 43.9912 151.867 44.0283C151.769 44.2404 151.669 44.4499 151.562 44.6568C151.443 44.9008 151.321 45.1448 151.191 45.3835C151.077 45.6062 150.958 45.8237 150.833 46.0412C150.618 46.4257 150.393 46.8076 150.16 47.1789C150.069 47.3221 149.979 47.4653 149.886 47.6085C149.865 47.643 149.844 47.6774 149.823 47.7093C149.746 47.8339 149.666 47.9533 149.584 48.0752C149.528 48.1574 149.473 48.2397 149.417 48.3192C149.324 48.4624 149.226 48.6003 149.125 48.7356C149.099 48.778 149.07 48.8178 149.04 48.8576C148.892 49.0644 148.743 49.266 148.592 49.4675C148.587 49.4702 148.587 49.4728 148.584 49.4755C148.579 49.4755 148.579 49.4781 148.576 49.4808C148.51 49.5683 148.444 49.6558 148.375 49.7407C148.285 49.8653 148.186 49.9873 148.088 50.1067C147.929 50.3082 147.762 50.5124 147.592 50.7113C147.587 50.7166 147.584 50.7219 147.579 50.7246C146.7 51.757 145.749 52.7248 144.731 53.6205C144.712 53.6365 144.699 53.6524 144.681 53.6656C144.537 53.7903 144.394 53.9149 144.246 54.0369C144.185 54.0873 144.124 54.1377 144.063 54.1881C143.962 54.2729 143.858 54.3578 143.758 54.4347C143.746 54.4469 143.732 54.4576 143.718 54.4665C143.628 54.5408 143.54 54.6097 143.45 54.6787C143.341 54.7662 143.233 54.8484 143.121 54.9306C142.596 55.3284 142.057 55.7041 141.503 56.0577C141.421 56.1134 141.334 56.1691 141.249 56.2221C141.198 56.254 141.148 56.2858 141.1 56.3123C140.899 56.437 140.697 56.5589 140.496 56.6756C140.294 56.795 140.087 56.909 139.883 57.0204C139.446 57.2591 139.013 57.5084 138.592 57.7682C138.379 57.9008 138.167 58.0335 137.958 58.1687C137.125 58.7097 136.323 59.2887 135.552 59.9058C134.782 60.5231 134.043 61.179 133.338 61.8709C133.25 61.9557 133.163 62.0433 133.075 62.1334C132.9 62.3058 132.731 62.4808 132.569 62.6559C132.309 62.9237 132.06 63.1995 131.813 63.478C130.513 64.9536 129.361 66.5544 128.376 68.2569C127.881 69.1069 127.432 69.9824 127.029 70.8797C126.724 71.5506 126.445 72.2375 126.194 72.9323C126.026 73.3964 125.87 73.8649 125.724 74.3379C125.653 74.5739 125.584 74.8126 125.517 75.0512C125.292 75.8601 125.104 76.6769 124.95 77.4964C124.825 78.1541 124.724 78.8127 124.647 79.4721C124.608 79.8036 124.576 80.1351 124.547 80.464C124.478 81.2722 124.443 82.0813 124.442 82.8911C124.437 85.3206 124.733 87.7414 125.321 90.0986C125.451 90.6184 125.595 91.1356 125.753 91.65C125.833 91.9073 125.918 92.1619 126.003 92.4165C126.217 93.0529 126.455 93.6832 126.716 94.3073C126.872 94.6813 127.037 95.0525 127.209 95.4212C128.305 97.7646 129.703 99.9544 131.368 101.934C131.641 102.261 131.923 102.582 132.214 102.897C132.216 102.897 132.214 102.9 132.214 102.9C132.935 103.687 133.699 104.434 134.502 105.138H134.505C134.826 105.422 135.152 105.697 135.483 105.963C135.486 105.96 135.486 105.963 135.486 105.963C135.82 106.233 136.157 106.493 136.502 106.745C136.674 106.87 136.849 106.994 137.027 107.119C137.374 107.366 137.729 107.604 138.09 107.832H138.093C138.454 108.066 138.82 108.289 139.191 108.501C139.936 108.928 140.7 109.328 141.485 109.692L141.617 109.753L141.753 109.692C143.011 109.125 144.309 108.649 145.635 108.267C145.927 108.183 146.221 108.106 146.513 108.031C147.25 107.848 147.993 107.695 148.741 107.57C148.012 107.935 147.309 108.349 146.635 108.808C146.113 109.161 145.598 109.546 145.081 109.97C144.909 110.111 144.736 110.256 144.564 110.405L144.134 110.776L144.673 110.954C144.869 111.018 145.065 111.081 145.261 111.14C145.529 111.224 145.794 111.301 146.054 111.373C146.622 111.532 147.193 111.673 147.767 111.795C147.908 111.824 148.046 111.853 148.186 111.882C148.46 111.935 148.735 111.988 149.011 112.036C149.023 112.039 149.034 112.041 149.046 112.041C149.332 112.089 149.621 112.134 149.908 112.174C150.441 112.251 150.974 112.312 151.507 112.357C151.565 112.365 151.623 112.367 151.684 112.37C151.814 112.381 151.942 112.391 152.072 112.399C152.358 112.418 152.647 112.431 152.936 112.442C152.957 112.442 152.976 112.444 152.997 112.444C153.143 112.45 153.289 112.455 153.435 112.458C153.435 112.458 153.435 112.46 153.437 112.458C153.583 112.46 153.729 112.463 153.875 112.463H154.681C154.832 112.463 154.984 112.465 155.137 112.465C155.35 112.465 155.564 112.468 155.776 112.471C155.832 112.471 155.891 112.473 155.949 112.473C156.288 112.479 156.628 112.487 156.967 112.495C156.988 112.495 157.01 112.497 157.031 112.497C157.37 112.508 157.71 112.519 158.049 112.534C158.123 112.537 158.198 112.54 158.275 112.545C158.601 112.558 158.927 112.574 159.253 112.593C159.346 112.598 159.442 112.606 159.537 112.611C159.784 112.625 160.033 112.641 160.28 112.659C160.425 112.667 160.569 112.678 160.714 112.691C161.303 112.736 161.889 112.786 162.478 112.845C162.674 112.861 162.871 112.882 163.067 112.903C163.592 112.959 164.119 113.02 164.647 113.086C164.883 113.113 165.119 113.144 165.355 113.176C165.382 113.179 165.408 113.182 165.435 113.187C165.727 113.227 166.016 113.266 166.308 113.309C166.498 113.335 166.689 113.365 166.88 113.394C167.077 113.423 167.273 113.452 167.469 113.487C167.575 113.502 167.681 113.521 167.79 113.54C168.045 113.579 168.302 113.622 168.559 113.67C168.582 113.672 168.605 113.675 168.628 113.68C169.174 113.776 169.723 113.876 170.27 113.985C170.59 114.046 170.909 114.11 171.227 114.176C171.476 114.226 171.726 114.279 171.975 114.332C172.017 114.34 172.06 114.351 172.102 114.362C172.112 114.364 172.121 114.366 172.131 114.367C172.508 114.449 172.887 114.534 173.264 114.624C174.571 114.927 175.877 115.262 177.181 115.632C177.48 115.714 177.78 115.802 178.08 115.889C178.207 115.926 178.332 115.963 178.456 116.001C178.716 116.078 178.973 116.154 179.233 116.237C179.461 116.306 179.692 116.377 179.92 116.451C180.063 116.497 180.207 116.542 180.35 116.589C180.573 116.658 180.795 116.73 181.015 116.807C181.204 116.865 181.389 116.926 181.575 116.992C181.84 117.08 182.108 117.17 182.373 117.266C182.45 117.292 182.53 117.319 182.607 117.348C182.93 117.459 183.254 117.573 183.577 117.693C183.893 117.807 184.208 117.923 184.521 118.04C184.739 118.122 184.956 118.202 185.171 118.287C185.412 118.379 185.654 118.472 185.892 118.568C186.237 118.703 186.585 118.841 186.929 118.981C187.248 119.109 187.563 119.239 187.881 119.374C187.94 119.398 188.001 119.422 188.059 119.448C188.335 119.562 188.611 119.682 188.884 119.801C189.062 119.875 189.237 119.952 189.412 120.029C190.175 120.363 190.938 120.709 191.7 121.066H191.703C192.18 121.291 192.666 121.506 193.154 121.71C193.268 121.758 193.382 121.806 193.498 121.851C193.692 121.933 193.888 122.01 194.084 122.09C194.212 122.14 194.339 122.19 194.469 122.238C194.657 122.312 194.848 122.384 195.039 122.453C195.241 122.527 195.44 122.601 195.644 122.67C195.715 122.697 195.787 122.721 195.861 122.747C196.097 122.827 196.333 122.906 196.572 122.983C196.596 122.991 196.62 122.999 196.646 123.007C196.896 123.087 197.145 123.166 197.397 123.241C197.417 123.248 197.437 123.254 197.458 123.259C197.728 123.341 198.004 123.421 198.277 123.498C198.68 123.609 199.086 123.715 199.492 123.813C199.566 123.832 199.64 123.851 199.715 123.866C199.932 123.919 200.147 123.97 200.364 124.018C200.595 124.071 200.828 124.118 201.059 124.166C201.293 124.214 201.526 124.262 201.757 124.304C201.881 124.328 202.006 124.352 202.128 124.373L202.454 124.429C202.68 124.468 202.905 124.503 203.133 124.54C203.139 124.54 203.146 124.541 203.152 124.543C203.409 124.582 203.663 124.62 203.921 124.651C204.167 124.686 204.414 124.715 204.661 124.744C204.711 124.75 204.764 124.755 204.817 124.76C205.021 124.784 205.225 124.808 205.43 124.826C205.488 124.832 205.546 124.837 205.605 124.842C205.806 124.861 206.008 124.879 206.209 124.893C206.25 124.898 206.291 124.901 206.331 124.901C206.512 124.917 206.692 124.93 206.872 124.938C207 124.948 207.124 124.954 207.252 124.962C207.318 124.964 207.382 124.967 207.448 124.97C207.623 124.98 207.798 124.986 207.976 124.991C208.19 124.999 208.405 125.004 208.617 125.009C208.875 125.015 209.135 125.017 209.392 125.017H209.397C209.649 125.017 209.904 125.015 210.156 125.009H210.251L210.529 125.001C210.673 124.999 210.816 124.994 210.956 124.988C211.227 124.978 211.495 124.964 211.763 124.948C211.869 124.943 211.977 124.935 212.084 124.93C212.131 124.927 212.182 124.922 212.229 124.919C212.396 124.909 212.561 124.898 212.728 124.885C212.9 124.872 213.075 124.856 213.248 124.837C213.471 124.816 213.693 124.792 213.916 124.768C214.091 124.75 214.266 124.728 214.439 124.707C214.462 124.705 214.485 124.701 214.507 124.696C214.675 124.678 214.842 124.657 215.006 124.633C215.202 124.606 215.396 124.577 215.589 124.548C215.611 124.545 215.629 124.543 215.65 124.54C215.985 124.487 216.321 124.434 216.658 124.373C217.011 124.309 217.364 124.24 217.714 124.169C217.844 124.142 217.971 124.113 218.101 124.087C218.173 124.071 218.247 124.057 218.316 124.041C218.424 124.018 218.531 123.994 218.637 123.967C218.655 123.965 218.676 123.959 218.695 123.957C218.843 123.925 218.989 123.888 219.138 123.851C219.435 123.779 219.727 123.705 220.018 123.625C220.148 123.593 220.278 123.559 220.403 123.524C220.44 123.514 220.477 123.503 220.512 123.492C221.05 123.341 221.584 123.181 222.113 123.012C222.347 122.938 222.577 122.861 222.808 122.779C223.304 122.609 223.796 122.431 224.283 122.243C224.413 122.196 224.543 122.143 224.673 122.092C224.864 122.015 225.054 121.938 225.243 121.862C225.412 121.79 225.582 121.718 225.755 121.644C225.839 121.61 225.924 121.572 226.009 121.535C226.264 121.424 226.518 121.31 226.77 121.196C226.94 121.116 227.107 121.039 227.274 120.96C227.539 120.833 227.802 120.703 228.064 120.573C228.131 120.538 228.194 120.504 228.258 120.472C228.425 120.387 228.592 120.299 228.762 120.215C229.03 120.071 229.298 119.928 229.563 119.78C229.653 119.732 229.74 119.682 229.831 119.631C230.122 119.467 230.411 119.3 230.698 119.13C231.332 118.751 231.957 118.355 232.573 117.942C232.727 117.841 232.88 117.735 233.032 117.632C233.318 117.435 233.599 117.234 233.88 117.032C233.909 117.011 233.936 116.99 233.965 116.971C234.106 116.868 234.246 116.764 234.387 116.658C234.679 116.438 234.968 116.215 235.257 115.987C235.262 115.985 235.27 115.977 235.278 115.971C235.408 115.868 235.538 115.765 235.665 115.661C236.06 115.34 236.45 115.014 236.832 114.677C237.02 114.516 237.206 114.348 237.389 114.181C237.527 114.057 237.665 113.932 237.8 113.805C238.073 113.548 238.341 113.293 238.606 113.033C238.739 112.906 238.869 112.773 239.001 112.641C239.131 112.508 239.264 112.375 239.394 112.24C239.439 112.195 239.484 112.147 239.529 112.1C239.662 111.959 239.794 111.816 239.927 111.675C240.041 111.553 240.152 111.426 240.266 111.299C240.457 111.086 240.651 110.874 240.839 110.66C240.849 110.647 240.86 110.636 240.871 110.625C240.881 110.612 240.892 110.601 240.9 110.591H240.897C244.752 106.133 247.616 100.908 249.3 95.2601C250.984 89.6127 251.45 83.672 250.666 77.8312C249.882 71.9904 247.866 66.3827 244.753 61.3792C241.639 56.3757 237.498 52.0905 232.605 48.8072Z" fill="#145DB8"/>
<g opacity="0.15">
<path d="M178.926 17.5116C179.455 19.4106 180.25 21.2249 181.288 22.9005C179.55 21.4073 177.997 19.7113 176.663 17.8486C177.412 17.7068 178.167 17.5945 178.926 17.5116Z" fill="black"/>
<path d="M153.049 46.879C151.086 47.9502 149.251 49.2402 147.578 50.7244C150.402 47.385 152.466 43.4713 153.627 39.2547C153.641 39.2041 153.655 39.1531 153.669 39.1023L153.708 38.9588C155.103 33.9263 157.81 29.3546 161.551 25.7112L161.845 25.4246L162.053 25.7788C163.2 27.729 164.572 29.5374 166.142 31.1667C163.737 37.9542 159.056 43.6033 153.049 46.879Z" fill="black"/>
<path d="M166.873 28.8149L166.834 28.9584C166.82 29.0092 166.806 29.0602 166.792 29.1108C166.714 29.3899 166.632 29.6669 166.547 29.9426C165.708 27.7697 165.119 25.5084 164.791 23.2023L164.76 23.0066L164.921 22.8916C166.939 21.4415 169.131 20.2501 171.445 19.345C169.367 22.2029 167.819 25.4103 166.873 28.8149Z" fill="black"/>
<path d="M139.884 57.0228C141.621 56.0721 143.247 54.9308 144.731 53.6202C141.766 57.0727 139.64 61.165 138.521 65.5764C137.402 69.9878 137.319 74.5985 138.28 79.0472C139.24 83.4958 141.218 87.6616 144.058 91.2181C146.898 94.7746 150.523 97.6252 154.648 99.5465L154.783 99.6084L154.916 99.548C157.145 98.5412 159.494 97.8277 161.906 97.4254C160.401 98.1923 158.998 99.145 157.729 100.261L157.3 100.632L157.838 100.81C158.303 100.964 158.768 101.105 159.219 101.23C161.874 101.97 164.617 102.337 167.373 102.321C179.89 102.241 192.505 105.135 204.867 110.923C206.987 111.914 209.186 112.726 211.441 113.352C221.268 116.088 231.758 115.104 240.905 110.588C235.748 116.552 229.005 120.931 221.46 123.215C213.914 125.5 205.875 125.598 198.276 123.496C196.021 122.87 193.822 122.058 191.702 121.066C179.341 115.279 166.726 112.385 154.208 112.465C151.453 112.481 148.709 112.113 146.055 111.374C145.603 111.249 145.138 111.107 144.674 110.954L144.135 110.776L144.564 110.405C145.833 109.289 147.236 108.336 148.742 107.569C146.33 107.972 143.98 108.685 141.752 109.692L141.618 109.752L141.484 109.69C136.529 107.384 132.313 103.747 129.305 99.1839C126.298 94.6209 124.617 89.312 124.451 83.8496C124.285 78.3872 125.641 72.9861 128.366 68.2491C131.091 63.512 135.078 59.6254 139.884 57.0228Z" fill="black"/>
</g>
</g>
<defs>
<clipPath id="clip0_407_1008">
<rect width="250.083" height="211" fill="white" transform="translate(0.958618)"/>
</clipPath>
</defs>
</svg>
