<svg width="23" height="22" viewBox="0 0 23 22" fill="none" xmlns="http://www.w3.org/2000/svg">
<path d="M1.6847 12.2135C1.33168 9.91624 1.15517 8.76763 1.58948 7.74938C2.02378 6.73112 2.98734 6.03443 4.91445 4.64106L6.3543 3.6C8.7516 1.86667 9.95025 1 11.3333 1C12.7164 1 13.915 1.86667 16.3123 3.6L17.7522 4.64106C19.6793 6.03443 20.6428 6.73112 21.0771 7.74938C21.5115 8.76763 21.3349 9.91624 20.9819 12.2135L20.6809 14.1724C20.1804 17.4289 19.9302 19.0572 18.7623 20.0286C17.5944 21 15.887 21 12.4721 21H10.1945C6.77965 21 5.07222 21 3.90431 20.0286C2.7364 19.0572 2.48618 17.4289 1.98574 14.1724L1.6847 12.2135Z" fill="white" stroke="#145DB8" stroke-width="1.5" stroke-linejoin="round"/>
<path d="M9.33331 17L13.3333 17" stroke="#145DB8" stroke-width="1.5" stroke-linecap="round" stroke-linejoin="round"/>
</svg>
